<?xml version="1.0" encoding="utf-8"?>
<!-- Generator: Adobe Illustrator 16.0.0, SVG Export Plug-In . SVG Version: 6.00 Build 0)  -->
<!DOCTYPE svg PUBLIC "-//W3C//DTD SVG 1.1//EN" "http://www.w3.org/Graphics/SVG/1.1/DTD/svg11.dtd">
<svg version="1.1" id="Layer_1" xmlns="http://www.w3.org/2000/svg" xmlns:xlink="http://www.w3.org/1999/xlink" x="0px" y="0px"
	 width="30px" height="30px" viewBox="-2.25 -2.25 30 30" enable-background="new -2.25 -2.25 30 30" xml:space="preserve">
<g>
	<path fill="#FFFFFF" d="M71.098,37.095H48.489c-2.135,0-3.768,1.633-3.768,3.768v22.609c0,2.135,1.633,3.768,3.768,3.768h22.608
		c2.135,0,3.768-1.633,3.768-3.768V40.862C74.863,38.728,73.232,37.095,71.098,37.095z"/>
</g>
<g>
	<g>
		<path d="M73.333,10.329c-0.267,0-0.482,0.272-0.482,0.607c0,0.931,0,2.698,0,3.627c0,0.336,0.216,0.607,0.483,0.607
			c0.267,0,0.481-0.271,0.481-0.607c0-0.929,0-2.696,0-3.627C73.815,10.602,73.6,10.329,73.333,10.329z"/>
		<path d="M46.256,10.329c-0.267,0-0.483,0.272-0.483,0.607c0,0.932,0,2.696,0,3.626c0,0.335,0.217,0.607,0.483,0.608
			c0.267,0,0.481-0.271,0.481-0.607c0-0.929,0-2.696,0.001-3.627C46.738,10.602,46.522,10.329,46.256,10.329z"/>
		<path d="M52.197,4.831c-0.889,0-1.61,0.815-1.61,1.821c0,3.048,0.001,9.148,0.002,12.195c0,1.006,0.72,1.821,1.609,1.821
			c0.889,0,1.609-0.816,1.609-1.821c0-1.195,0-2.862,0-4.629c0.929,0,9.237,0,11.714,0c0,1.768,0,3.434,0,4.63
			c0,1.005,0.722,1.82,1.611,1.82c0.889,0,1.609-0.816,1.609-1.821c0-3.048,0-9.148,0-12.195c0-1.007-0.721-1.821-1.609-1.821
			c-0.89,0-1.611,0.814-1.611,1.821c0,1.195,0,2.861,0,4.629c-2.478,0-10.785,0-11.714,0c0-1.768,0-3.434,0-4.63
			C53.808,5.646,53.087,4.831,52.197,4.831z"/>
		<path d="M70.874,7.264c-0.052,0-0.104,0-0.157,0c-0.67,0-1.214,0.542-1.214,1.213c0,2.111,0,6.436,0,8.547
			c0,0.671,0.544,1.214,1.214,1.214c0.053,0,0.106,0,0.158,0c0.67,0,1.214-0.542,1.214-1.213c0-2.11,0-6.436,0-8.547
			C72.089,7.807,71.545,7.264,70.874,7.264z"/>
		<path d="M48.695,7.264c-0.053,0-0.106,0-0.158,0c-0.671,0-1.214,0.542-1.214,1.213c0,2.111,0,6.436,0,8.547
			c0,0.671,0.543,1.214,1.214,1.214c0.052,0,0.105,0,0.157,0c0.67,0,1.214-0.542,1.214-1.213c0-2.11,0-6.436,0-8.547
			C49.909,7.807,49.365,7.264,48.695,7.264z"/>
	</g>
</g>
</svg>
