<?xml version="1.0" encoding="utf-8"?>
<!-- Generator: Adobe Illustrator 16.0.0, SVG Export Plug-In . SVG Version: 6.00 Build 0)  -->
<!DOCTYPE svg PUBLIC "-//W3C//DTD SVG 1.1//EN" "http://www.w3.org/Graphics/SVG/1.1/DTD/svg11.dtd">
<svg version="1.1" id="Layer_1" xmlns="http://www.w3.org/2000/svg" xmlns:xlink="http://www.w3.org/1999/xlink" x="0px" y="0px"
	 width="30px" height="30px" viewBox="0 0 30 30" enable-background="new 0 0 30 30" xml:space="preserve">
<path fill="#FFFFFF" d="M26.305-0.072H3.695c-2.135,0-3.768,1.633-3.768,3.768v22.609c0,2.135,1.633,3.768,3.768,3.768h22.609
	c2.135,0,3.768-1.633,3.768-3.768V3.693C30.07,1.561,28.439-0.072,26.305-0.072z M11.147,26.504l-1.161,1.108
	c-0.246,0.246-0.492,0.229-0.738-0.053l-6.86-7.335c-0.247-0.282-0.229-0.546,0.053-0.792l1.161-1.108
	c0.246-0.246,0.492-0.229,0.738,0.053l6.86,7.388C11.446,26.012,11.429,26.258,11.147,26.504z M13.68,24.129l-1.16,1.108
	c-0.281,0.246-0.545,0.246-0.791,0L4.92,17.85c-0.246-0.246-0.246-0.492,0-0.738l1.215-1.108c0.246-0.247,0.492-0.247,0.738,0
	l6.859,7.388C13.979,23.637,13.961,23.883,13.68,24.129z M19.907,12.625l-7.388,6.913c-0.281,0.246-0.545,0.246-0.791,0
	l-1.742-1.899c-0.246-0.281-0.246-0.545,0-0.791l7.388-6.914c0.281-0.246,0.546-0.229,0.792,0.053l1.741,1.9
	C20.153,12.133,20.153,12.379,19.907,12.625z M25.079,12.889l-1.214,1.109c-0.247,0.246-0.493,0.246-0.739,0l-6.807-7.389
	c-0.247-0.246-0.247-0.492,0-0.738l1.16-1.108c0.282-0.247,0.546-0.247,0.792,0l6.808,7.388
	C25.325,12.396,25.325,12.643,25.079,12.889z M27.559,10.567l-1.16,1.108c-0.247,0.246-0.493,0.229-0.739-0.053l-6.86-7.336
	c-0.245-0.281-0.228-0.545,0.053-0.791l1.161-1.107c0.246-0.247,0.492-0.229,0.739,0.053l6.859,7.334
	C27.858,10.057,27.84,10.321,27.559,10.567z"/>
</svg>
