<?xml version="1.0" encoding="utf-8"?>
<!-- Generator: Adobe Illustrator 16.0.0, SVG Export Plug-In . SVG Version: 6.00 Build 0)  -->
<!DOCTYPE svg PUBLIC "-//W3C//DTD SVG 1.1//EN" "http://www.w3.org/Graphics/SVG/1.1/DTD/svg11.dtd">
<svg version="1.1" id="Layer_1" xmlns="http://www.w3.org/2000/svg" xmlns:xlink="http://www.w3.org/1999/xlink" x="0px" y="0px"
	 width="30px" height="30px" viewBox="-2.25 -2.25 30 30" enable-background="new -2.25 -2.25 30 30" xml:space="preserve">
<g>
	<path fill="#FFFFFF" d="M13.472,7.24c0.522,0,0.995-0.202,1.347-0.532c0.357-0.332,0.592-0.796,0.625-1.313
		c0.003-0.043,0.005-0.085,0.005-0.13c0-1.09-0.885-1.974-1.977-1.974c-1.008,0-1.837,0.752-1.958,1.721
		c-0.013,0.082-0.018,0.167-0.018,0.252c0,0.435,0.138,0.836,0.377,1.162C12.234,6.919,12.814,7.24,13.472,7.24z"/>
	<path fill="#FFFFFF" d="M24.055-2.322H1.446c-2.135,0-3.768,1.633-3.768,3.768v22.609c0,2.135,1.633,3.768,3.768,3.768h22.609
		c2.135,0,3.768-1.633,3.768-3.768V1.446C27.82-0.689,26.189-2.322,24.055-2.322z M8.934,3.46c0.718-1.8,2.477-3.073,4.535-3.073
		c2.389,0,4.376,1.715,4.798,3.981c0.101,0.556,0.107,1.143,0.018,1.698c-0.219,1.337-0.98,2.492-2.059,3.229
		c-0.783,0.537-1.731,0.852-2.754,0.852c-2.696,0-4.88-2.184-4.883-4.881C8.59,4.654,8.709,4.028,8.934,3.46z M19.895,22.83
		c-0.078,0.346-0.383,0.593-0.738,0.588c-0.993-0.018-2.995-0.007-4.892,0.254c-5.905,0.801-7.753-1.402-11.455-1.498
		c-0.137-0.002-0.243-0.113-0.241-0.246v-7.899c0-0.116,0.082-0.219,0.195-0.241c0.735-0.162,3.354-0.561,4.496,1.438
		c0,0,4.124-1.393,6.33,1.008c1.489,1.252-1.169-1.587,1.815-4.506c0.391-0.381,0.614-0.9,0.604-1.442
		c0.533-0.268,1.014-0.617,1.438-1.043c0.519-0.516,0.923-1.117,1.207-1.786c0.127-0.299,0.227-0.605,0.298-0.92
		c0.268,0.905,0.598,2.324,0.598,3.809c0,2.493,1.291,4.505,1.291,7.446C20.838,20.309,20.164,21.623,19.895,22.83z"/>
</g>
</svg>
