<?xml version="1.0" encoding="utf-8"?>
<!-- Generator: Adobe Illustrator 16.0.0, SVG Export Plug-In . SVG Version: 6.00 Build 0)  -->
<!DOCTYPE svg PUBLIC "-//W3C//DTD SVG 1.1//EN" "http://www.w3.org/Graphics/SVG/1.1/DTD/svg11.dtd">
<svg version="1.1" id="Layer_1" xmlns="http://www.w3.org/2000/svg" xmlns:xlink="http://www.w3.org/1999/xlink" x="0px" y="0px"
	 width="30px" height="30px" viewBox="-2.25 -2.25 30 30" enable-background="new -2.25 -2.25 30 30" xml:space="preserve">
<path fill="#FFFFFF" d="M24.126-2.395H1.518c-2.135,0-3.768,1.633-3.768,3.768v22.61c0,2.135,1.633,3.768,3.768,3.768h22.608
	c2.135,0,3.768-1.633,3.768-3.768V1.373C27.892-0.762,26.261-2.395,24.126-2.395z M-0.234,15.667c0,0.335-0.215,0.607-0.481,0.607
	S-1.199,16-1.199,15.666c0-0.93,0-2.694,0-3.626c0-0.335,0.217-0.607,0.483-0.607s0.482,0.272,0.482,0.607
	C-0.234,12.97-0.234,14.738-0.234,15.667z M2.937,18.127c0,0.672-0.544,1.213-1.214,1.213c-0.052,0-0.105,0-0.157,0
	c-0.671,0-1.214-0.543-1.214-1.213c0-2.111,0-6.436,0-8.547c0-0.671,0.543-1.213,1.214-1.213c0.052,0,0.105,0,0.158,0
	c0.67,0,1.214,0.543,1.213,1.214C2.937,11.692,2.937,16.018,2.937,18.127z M21.771,19.951c0,1.004-0.721,1.82-1.609,1.82
	c-0.89,0-1.611-0.814-1.611-1.82c0-1.195,0-2.861,0-4.629c-2.477,0-10.785,0-11.714,0c0,1.766,0,3.434,0,4.629
	c0,1.004-0.721,1.82-1.609,1.82c-0.89,0-1.609-0.814-1.609-1.82c-0.001-3.047-0.002-9.148-0.002-12.196
	c0-1.006,0.722-1.821,1.61-1.821c0.89,0,1.61,0.814,1.61,1.82c0,1.196,0,2.862,0,4.63c0.929,0,9.236,0,11.714,0
	c0-1.768,0-3.434,0-4.629c0-1.007,0.722-1.821,1.611-1.821c0.889,0,1.609,0.814,1.609,1.821
	C21.771,10.802,21.771,16.902,21.771,19.951z M25.117,18.127c0,0.672-0.544,1.213-1.214,1.213c-0.052,0-0.105,0-0.158,0
	c-0.67,0-1.214-0.543-1.214-1.213c0-2.111,0-6.436,0-8.547c0-0.671,0.544-1.213,1.214-1.213c0.053,0,0.105,0,0.157,0
	c0.671,0,1.215,0.543,1.215,1.214C25.117,11.692,25.117,16.018,25.117,18.127z M26.844,15.667c0,0.335-0.215,0.607-0.481,0.607
	c-0.268,0-0.483-0.271-0.483-0.607c0-0.929,0-2.696,0-3.627c0-0.335,0.216-0.607,0.482-0.607s0.482,0.272,0.482,0.607
	C26.844,12.97,26.844,14.738,26.844,15.667z"/>
</svg>
